<svg width="1920" height="1213" viewBox="0 0 1920 1213" fill="none" xmlns="http://www.w3.org/2000/svg">
<path d="M2226.9 927.643C2242.45 880.511 2238.32 772.614 2097.45 718.077C2021.39 688.636 1982.53 659.373 1961.87 630.557V535H1934.24C1933.54 529.898 1932.74 524.822 1931.7 519.774C1918.8 456.856 1889.55 389.561 1722.54 392.029C1555.53 394.496 1399.66 368.47 1311.65 232.964C1241.24 124.56 1153.95 91.0269 1120.92 82.1769C1087.89 73.327 995.526 58.7212 880.346 117.397C736.371 190.741 588.37 135.345 444.97 49.7042C301.571 -35.9369 242.596 7.71962 199.958 55.7536C193.331 63.2187 187.409 71.2107 181.433 79.2764C148.954 123.109 114.86 169.121 -42.7306 144.618C-192.002 121.409 -249.523 212.789 -259.625 261.38L-40.8705 855.595V900.529C-43.0636 929.719 -18.2377 990.489 98.6108 1000.04C221.971 1010.13 238.327 1041.51 253.909 1071.4C256.776 1076.9 259.617 1082.36 263.093 1087.61C285.463 1121.45 320.991 1155.28 445.998 1128.41C571.005 1101.55 693.38 1092.59 786.806 1156.28C861.547 1207.23 933.898 1213 960.5 1213C987.102 1213 1059.45 1207.23 1134.19 1156.28C1227.62 1092.59 1350 1101.55 1475 1128.41C1600.01 1155.28 1635.54 1121.45 1657.91 1087.61C1661.38 1082.36 1664.22 1076.9 1667.09 1071.4C1682.67 1041.51 1699.03 1010.13 1822.39 1000.04C1925.18 991.638 1956.76 943.599 1961.38 912.291H2033.27L2226.9 927.643Z" fill="#1D1534"/>
</svg>
